<svg width="24" height="24" viewBox="0 0 24 24" fill="none" xmlns="http://www.w3.org/2000/svg">
<g clip-path="url(#clip0_29469_3980)">
<path d="M19.5 2.25H6.75C5.95435 2.25 5.19129 2.56607 4.62868 3.12868C4.06607 3.69129 3.75 4.45435 3.75 5.25V21C3.75 21.1989 3.82902 21.3897 3.96967 21.5303C4.11032 21.671 4.30109 21.75 4.5 21.75H18C18.1989 21.75 18.3897 21.671 18.5303 21.5303C18.671 21.3897 18.75 21.1989 18.75 21C18.75 20.8011 18.671 20.6103 18.5303 20.4697C18.3897 20.329 18.1989 20.25 18 20.25H5.25C5.25 19.8522 5.40804 19.4706 5.68934 19.1893C5.97064 18.908 6.35218 18.75 6.75 18.75H19.5C19.6989 18.75 19.8897 18.671 20.0303 18.5303C20.171 18.3897 20.25 18.1989 20.25 18V3C20.25 2.80109 20.171 2.61032 20.0303 2.46967C19.8897 2.32902 19.6989 2.25 19.5 2.25ZM18.75 17.25H6.75C6.22326 17.2493 5.70572 17.388 5.25 17.6522V5.25C5.25 4.85218 5.40804 4.47064 5.68934 4.18934C5.97064 3.90804 6.35218 3.75 6.75 3.75H18.75V17.25Z" fill="white"/>
<path d="M16.5 10.7803C16.5 10.9792 16.421 11.17 16.2803 11.3107C16.1397 11.4513 15.9489 11.5303 15.75 11.5303H12.75V14.5303C12.75 14.7292 12.671 14.92 12.5303 15.0607C12.3897 15.2013 12.1989 15.2803 12 15.2803C11.8011 15.2803 11.6103 15.2013 11.4697 15.0607C11.329 14.92 11.25 14.7292 11.25 14.5303V11.5303H8.25C8.05109 11.5303 7.86032 11.4513 7.71967 11.3107C7.57902 11.17 7.5 10.9792 7.5 10.7803C7.5 10.5814 7.57902 10.3907 7.71967 10.25C7.86032 10.1093 8.05109 10.0303 8.25 10.0303H11.25V7.03033C11.25 6.83142 11.329 6.64065 11.4697 6.5C11.6103 6.35935 11.8011 6.28033 12 6.28033C12.1989 6.28033 12.3897 6.35935 12.5303 6.5C12.671 6.64065 12.75 6.83142 12.75 7.03033V10.0303H15.75C15.9489 10.0303 16.1397 10.1093 16.2803 10.25C16.421 10.3907 16.5 10.5814 16.5 10.7803Z" fill="white"/>
</g>
<defs>
<clipPath id="clip0_29469_3980">
<rect width="24" height="24" fill="white"/>
</clipPath>
</defs>
</svg>
