<svg width="24" height="24" viewBox="0 0 24 24" fill="none" xmlns="http://www.w3.org/2000/svg">
<path d="M20.9672 18.9883L17.8556 4.19452C17.8154 4.00105 17.7373 3.81745 17.6259 3.65425C17.5145 3.49106 17.3719 3.35148 17.2064 3.24354C17.0409 3.13561 16.8557 3.06144 16.6614 3.0253C16.4671 2.98916 16.2676 2.99176 16.0744 3.03295L11.6859 3.97608C11.2978 4.06107 10.9589 4.29589 10.7429 4.62946C10.527 4.96303 10.4515 5.36838 10.5328 5.75733L13.6444 20.5511C13.7137 20.8886 13.8971 21.192 14.1638 21.4101C14.4305 21.6283 14.7642 21.7481 15.1088 21.7492C15.2153 21.7491 15.3215 21.7377 15.4256 21.7155L19.8141 20.7723C20.2027 20.6871 20.542 20.4518 20.7579 20.1177C20.9739 19.7836 21.0491 19.3776 20.9672 18.9883ZM12 5.45077C12 5.44514 12 5.44233 12 5.44233L16.3875 4.50483L16.6997 5.99264L12.3122 6.9367L12 5.45077ZM12.6206 8.40108L17.01 7.45889L17.3231 8.94952L12.9375 9.89264L12.6206 8.40108ZM13.2431 11.3608L17.6325 10.4176L18.8794 16.3464L14.49 17.2895L13.2431 11.3608ZM19.5 19.3061L15.1125 20.2436L14.8003 18.7558L19.1878 17.8117L19.5 19.2976C19.5 19.3033 19.5 19.3061 19.5 19.3061ZM9 3.7492H4.5C4.10218 3.7492 3.72064 3.90724 3.43934 4.18854C3.15804 4.46985 3 4.85138 3 5.2492V20.2492C3 20.647 3.15804 21.0286 3.43934 21.3099C3.72064 21.5912 4.10218 21.7492 4.5 21.7492H9C9.39782 21.7492 9.77936 21.5912 10.0607 21.3099C10.342 21.0286 10.5 20.647 10.5 20.2492V5.2492C10.5 4.85138 10.342 4.46985 10.0607 4.18854C9.77936 3.90724 9.39782 3.7492 9 3.7492ZM4.5 5.2492H9V6.7492H4.5V5.2492ZM4.5 8.2492H9V17.2492H4.5V8.2492ZM9 20.2492H4.5V18.7492H9V20.2492Z" fill="white"/>
</svg>
